<svg xmlns="http://www.w3.org/2000/svg" width="78" height="65" viewBox="0 0 78 65"><path fill="#f0c8b8" d="M 39.750 9.737 C 42.638 9.939, 47.362 9.939, 50.250 9.737 C 53.138 9.535, 50.775 9.370, 45 9.370 C 39.225 9.370, 36.862 9.535, 39.750 9.737 M 65.500 14 C 66.495 15.100, 67.535 16, 67.810 16 C 68.085 16, 67.495 15.100, 66.500 14 C 65.505 12.900, 64.465 12, 64.190 12 C 63.915 12, 64.505 12.900, 65.500 14 M 27.872 16.750 C 26.629 18.336, 26.664 18.371, 28.250 17.128 C 29.916 15.821, 30.445 15, 29.622 15 C 29.415 15, 28.627 15.787, 27.872 16.750 M 62 15.378 C 62 15.585, 62.788 16.373, 63.750 17.128 C 65.336 18.371, 65.371 18.336, 64.128 16.750 C 62.821 15.084, 62 14.555, 62 15.378 M 35 20.214 C 35 20.646, 35.648 21, 36.441 21 C 37.234 21, 38.100 20.646, 38.368 20.214 C 38.635 19.782, 37.986 19.429, 36.927 19.429 C 35.867 19.429, 35 19.782, 35 20.214 M 56.558 19.907 C 56.249 20.405, 56.898 20.578, 57.999 20.290 C 60.334 19.679, 60.629 19, 58.559 19 C 57.766 19, 56.866 19.408, 56.558 19.907 M 29 22 C 29 22.550, 29.477 23, 30.059 23 C 30.641 23, 30.840 22.550, 30.500 22 C 30.160 21.450, 29.684 21, 29.441 21 C 29.198 21, 29 21.450, 29 22 M 61 22.450 C 61 23.807, 60.410 24.120, 58.530 23.761 C 57.172 23.501, 56.298 23.674, 56.589 24.144 C 57.476 25.579, 61.025 25.098, 61.655 23.457 C 61.981 22.608, 61.966 21.633, 61.624 21.290 C 61.281 20.947, 61 21.469, 61 22.450 M 43.762 22.707 C 45.006 22.946, 46.806 22.937, 47.762 22.687 C 48.718 22.437, 47.700 22.241, 45.500 22.252 C 43.300 22.263, 42.518 22.468, 43.762 22.707 M 36.924 25.750 L 34.500 28.500 37.500 26 C 39.150 24.625, 40.688 23.387, 40.917 23.250 C 41.146 23.113, 40.887 23, 40.341 23 C 39.795 23, 38.258 24.238, 36.924 25.750 M 51.318 24.118 C 52.318 24.700, 54.004 26.599, 55.064 28.338 C 56.125 30.077, 56.994 30.972, 56.996 30.327 C 57.002 28.679, 52.065 22.994, 50.661 23.030 C 50.022 23.047, 50.318 23.537, 51.318 24.118 M 25.374 34.500 C 25.376 40.550, 25.541 42.896, 25.740 39.713 C 25.939 36.531, 25.937 31.581, 25.736 28.713 C 25.535 25.846, 25.372 28.450, 25.374 34.500 M 21.370 35 C 21.370 40.775, 21.535 43.138, 21.737 40.250 C 21.939 37.362, 21.939 32.638, 21.737 29.750 C 21.535 26.862, 21.370 29.225, 21.370 35 M 70.343 33.500 C 70.346 37.900, 70.522 39.576, 70.733 37.224 C 70.945 34.872, 70.942 31.272, 70.727 29.224 C 70.512 27.176, 70.339 29.100, 70.343 33.500 M 59.383 29.285 C 59.525 31.970, 63.110 34.265, 64.250 32.402 C 65.410 30.508, 63.738 27.524, 61.383 27.285 C 59.771 27.122, 59.294 27.599, 59.383 29.285 M 45.505 29.992 C 45.168 30.538, 45.310 31.731, 45.821 32.644 C 46.577 33.995, 46.750 33.810, 46.750 31.652 C 46.750 28.802, 46.471 28.429, 45.505 29.992 M 33.079 33.583 C 33.127 34.748, 33.364 34.985, 33.683 34.188 C 33.972 33.466, 33.936 32.603, 33.604 32.271 C 33.272 31.939, 33.036 32.529, 33.079 33.583 M 29.500 34 C 29.160 34.550, 29.359 35, 29.941 35 C 30.523 35, 31 34.550, 31 34 C 31 33.450, 30.802 33, 30.559 33 C 30.316 33, 29.840 33.450, 29.500 34 M 53.079 34.583 C 53.127 35.748, 53.364 35.985, 53.683 35.188 C 53.972 34.466, 53.936 33.603, 53.604 33.271 C 53.272 32.939, 53.036 33.529, 53.079 34.583 M 28.459 37.067 C 28.096 37.653, 28.070 38.403, 28.400 38.733 C 28.730 39.063, 29 38.822, 29 38.198 C 29 37.550, 29.714 37.337, 30.664 37.701 C 31.783 38.131, 32.091 37.957, 31.605 37.170 C 30.703 35.711, 29.325 35.666, 28.459 37.067 M 61.893 38.668 C 60.700 40.137, 60.702 40.262, 61.905 39.537 C 62.879 38.950, 63.081 39.060, 62.565 39.894 C 61.999 40.811, 61.489 40.821, 60.421 39.934 C 59.304 39.007, 58.834 39.251, 58.102 41.136 C 57.436 42.851, 57.570 43.805, 58.592 44.610 C 60.339 45.988, 60.439 47.383, 58.745 46.732 C 58.054 46.467, 56.841 46.945, 56.048 47.793 C 54.775 49.156, 54.854 49.271, 56.729 48.781 C 58.269 48.378, 58.704 48.609, 58.315 49.622 C 57.900 50.703, 58.299 50.825, 60.088 50.163 C 61.358 49.693, 62.606 48.677, 62.861 47.904 C 63.225 46.802, 63.021 46.751, 61.913 47.665 C 60.745 48.629, 60.523 48.282, 60.633 45.665 C 60.706 43.924, 61.223 42.597, 61.783 42.717 C 62.783 42.930, 64.485 38.151, 63.691 37.358 C 63.468 37.134, 62.658 37.724, 61.893 38.668 M 31.442 39.681 C 31.767 40.330, 31.527 41.174, 30.910 41.556 C 30.112 42.049, 30.180 42.523, 31.143 43.191 C 32.072 43.834, 31.750 43.919, 30.125 43.458 C 28.509 43.001, 27.968 43.140, 28.434 43.893 C 28.810 44.502, 29.714 45, 30.442 45 C 31.171 45, 32.009 45.926, 32.305 47.057 C 32.650 48.377, 32.423 48.959, 31.671 48.682 C 31.027 48.444, 30.624 47.710, 30.775 47.051 C 30.935 46.353, 30.553 46.158, 29.862 46.585 C 29.032 47.098, 29.364 47.877, 30.967 49.174 C 32.852 50.700, 33.536 50.805, 34.821 49.765 C 36.019 48.795, 36.210 48.789, 35.640 49.739 C 35.155 50.546, 35.377 50.792, 36.278 50.447 C 37.038 50.155, 37.549 48.923, 37.413 47.708 C 37.278 46.494, 37.129 45.132, 37.083 44.683 C 37.038 44.233, 35.987 44.150, 34.750 44.498 C 33.513 44.846, 32.950 44.764, 33.500 44.316 C 34.050 43.867, 34.650 42.825, 34.833 42 C 35.017 41.175, 34.836 40.831, 34.432 41.234 C 34.028 41.638, 33.057 41.188, 32.275 40.234 C 31.492 39.281, 31.117 39.031, 31.442 39.681 M 53.873 41.653 C 53.118 42.563, 51.151 43.895, 49.500 44.614 C 47.691 45.403, 47.188 45.937, 48.234 45.961 C 49.791 45.996, 57.384 40.100, 55.872 40.029 C 55.527 40.013, 54.627 40.744, 53.873 41.653 M 36 41.378 C 36 41.585, 36.788 42.373, 37.750 43.128 C 39.336 44.371, 39.371 44.336, 38.128 42.750 C 36.821 41.084, 36 40.555, 36 41.378 M 52.429 49 C 52.429 50.295, 52.767 50.633, 53.414 49.986 C 54.062 49.338, 54.062 48.662, 53.414 48.014 C 52.767 47.367, 52.429 47.705, 52.429 49 M 47.638 49.500 C 47.322 50.325, 47.499 51, 48.031 51 C 48.564 51, 49 50.325, 49 49.500 C 49 48.675, 48.823 48, 48.607 48 C 48.391 48, 47.955 48.675, 47.638 49.500 M 27 49.378 C 27 49.585, 27.788 50.373, 28.750 51.128 C 30.336 52.371, 30.371 52.336, 29.128 50.750 C 27.821 49.084, 27 48.555, 27 49.378 M 43.702 50.667 C 43.984 51.400, 44.343 52, 44.500 52 C 44.657 52, 45.016 51.400, 45.298 50.667 C 45.579 49.933, 45.220 49.333, 44.500 49.333 C 43.780 49.333, 43.421 49.933, 43.702 50.667 M 62.139 51.033 C 60.841 52.115, 60.209 53, 60.734 53 C 61.260 53, 62.505 52.100, 63.500 51 C 65.787 48.473, 65.195 48.487, 62.139 51.033 M 39.250 53.742 C 42.962 53.934, 49.038 53.934, 52.750 53.742 C 56.462 53.549, 53.425 53.392, 46 53.392 C 38.575 53.392, 35.538 53.549, 39.250 53.742 M 34.813 57.683 C 35.534 57.972, 36.397 57.936, 36.729 57.604 C 37.061 57.272, 36.471 57.036, 35.417 57.079 C 34.252 57.127, 34.015 57.364, 34.813 57.683"/><path fill="#f8c8b8" d="M 28.333 19.544 C 28.333 20.345, 28.708 21, 29.167 21 C 29.625 21, 30 20.577, 30 20.059 C 30 19.541, 29.625 18.886, 29.167 18.603 C 28.708 18.320, 28.333 18.743, 28.333 19.544 M 54.584 25.250 C 55.626 26.488, 56.562 27.654, 56.664 27.842 C 56.766 28.030, 57.671 27.658, 58.675 27.016 C 60.269 25.997, 60.280 25.917, 58.765 26.387 C 57.678 26.724, 56.638 26.192, 55.980 24.963 C 55.402 23.883, 54.426 23, 53.810 23 C 53.194 23, 53.542 24.012, 54.584 25.250 M 41.901 27.896 C 41.021 28.778, 40.044 30.538, 39.729 31.807 C 39.231 33.819, 39.360 33.947, 40.742 32.807 C 42.153 31.644, 42.196 31.747, 41.129 33.750 C 40.469 34.987, 39.414 36, 38.785 36 C 38.155 36, 39.152 37.350, 41 39 C 44.990 42.562, 46.193 42.688, 49.422 39.881 C 51.359 38.196, 51.682 37.294, 50.994 35.483 C 50.517 34.231, 50.399 32.934, 50.731 32.603 C 51.062 32.271, 50.528 32, 49.544 32 C 48.183 32, 48.015 31.687, 48.841 30.691 C 49.652 29.715, 49.438 28.963, 47.998 27.731 C 46.722 26.638, 45.846 26.440, 45.410 27.146 C 45 27.808, 44.513 27.849, 44.125 27.253 C 43.762 26.695, 42.829 26.965, 41.901 27.896 M 45.015 30.250 C 45.024 30.938, 45.516 32.175, 46.110 33 C 47.042 34.297, 47.119 34.279, 46.672 32.872 C 46.389 31.976, 46.661 30.739, 47.278 30.122 C 48.107 29.293, 47.956 29, 46.700 29 C 45.765 29, 45.007 29.563, 45.015 30.250 M 57.584 31.641 C 57.057 33.014, 57.204 33.076, 58.477 32.019 C 60.212 30.579, 60.393 30, 59.107 30 C 58.616 30, 57.931 30.739, 57.584 31.641 M 59.451 35.659 C 59.922 37.539, 59.757 37.981, 58.790 37.423 C 58.081 37.014, 57.851 37.065, 58.279 37.535 C 59.817 39.226, 62 38.825, 62 36.852 C 62 35.769, 62.450 35.160, 63 35.500 C 63.550 35.840, 64 35.641, 64 35.059 C 64 34.477, 63.663 33.966, 63.250 33.923 C 62.837 33.881, 61.672 33.690, 60.661 33.499 C 59.148 33.213, 58.933 33.597, 59.451 35.659 M 37.270 48.936 C 37.356 50.071, 37.743 51, 38.131 51 C 38.519 51, 39.661 51.267, 40.668 51.594 C 42.182 52.086, 42.240 52.005, 41 51.131 C 40.175 50.549, 39.500 49.532, 39.500 48.870 C 39.500 48.208, 38.963 47.488, 38.307 47.269 C 37.613 47.038, 37.180 47.734, 37.270 48.936 M 31.500 51 C 31.840 51.550, 32.316 52, 32.559 52 C 32.802 52, 33 51.550, 33 51 C 33 50.450, 32.523 50, 31.941 50 C 31.359 50, 31.160 50.450, 31.500 51"/><path fill="#501818" d="M 32.442 10.907 C 32.751 11.405, 32.108 11.579, 31.014 11.293 C 29.753 10.964, 28.798 11.362, 28.407 12.381 C 28.068 13.265, 27.376 13.733, 26.870 13.420 C 26.364 13.107, 26.015 13.222, 26.094 13.676 C 26.479 15.893, 25.898 17.057, 24.750 16.367 C 23.810 15.802, 23.822 16.013, 24.796 17.216 C 25.966 18.660, 26.328 18.581, 28.501 16.408 C 30.815 14.094, 31.453 14, 44.873 14 C 52.553 14, 59.622 13.699, 60.582 13.330 C 61.908 12.821, 62.122 13.001, 61.472 14.080 C 60.751 15.276, 60.897 15.272, 62.397 14.054 C 63.997 12.755, 64.143 12.806, 63.839 14.554 C 63.585 16.013, 63.987 16.415, 65.446 16.161 C 67.201 15.856, 67.250 16.003, 65.946 17.661 C 64.615 19.354, 64.641 19.389, 66.280 18.102 C 67.969 16.776, 67.945 16.597, 65.800 14.602 C 64.556 13.446, 63.192 12.612, 62.769 12.750 C 62.346 12.887, 62 12.502, 62 11.893 C 62 11.284, 61.325 11.045, 60.500 11.362 C 59.675 11.678, 59 11.501, 59 10.969 C 59 10.391, 53.521 10, 45.441 10 C 37.586 10, 32.118 10.381, 32.442 10.907 M 22.727 20.250 C 22.458 21.488, 22.333 28.516, 22.450 35.869 C 22.654 48.676, 22.764 49.320, 25.081 51.205 C 26.412 52.288, 26.868 52.840, 26.095 52.432 C 25.191 51.955, 24.936 52.087, 25.378 52.802 C 25.755 53.413, 26.743 53.652, 27.573 53.334 C 28.521 52.970, 28.974 53.265, 28.791 54.127 C 28.610 54.980, 29.201 55.380, 30.350 55.183 C 31.368 55.009, 31.946 55.278, 31.636 55.781 C 31.308 56.311, 34.308 56.584, 38.785 56.431 C 45.433 56.204, 45.809 56.272, 41.500 56.926 C 37.420 57.546, 38.431 57.690, 47 57.711 C 54.540 57.730, 56.513 57.508, 54 56.925 C 50.973 56.222, 51.209 56.153, 55.750 56.410 C 58.846 56.585, 61 56.288, 61 55.687 C 61 55.126, 61.271 54.938, 61.603 55.270 C 61.934 55.601, 63.172 54.867, 64.353 53.637 C 66.010 51.912, 66.158 51.866, 65 53.434 C 63.579 55.358, 63.601 55.387, 65.405 53.983 C 69.020 51.169, 70 46.688, 70 32.973 C 70 16.682, 68.095 16.110, 67.788 32.309 L 67.575 43.500 67.254 32.748 C 67.044 25.725, 67.348 21.215, 68.130 19.748 C 69.216 17.710, 69.172 17.628, 67.664 18.872 C 66.259 20.031, 66 22.387, 66 33.988 C 66 46.377, 65.796 47.990, 63.927 50.365 C 62.788 51.814, 61.186 53, 60.368 53 C 59.551 53, 59.091 53.337, 59.345 53.750 C 59.860 54.583, 33.794 54.808, 33 53.977 C 32.725 53.689, 31.270 52.671, 29.766 51.714 C 28.262 50.757, 26.752 48.859, 26.409 47.494 C 26.067 46.130, 25.497 45.192, 25.143 45.409 C 24.789 45.627, 24.484 40.466, 24.464 33.940 C 24.444 27.414, 24.775 22.620, 25.199 23.287 C 26.151 24.786, 26.300 21.945, 25.393 19.582 C 24.526 17.321, 23.298 17.629, 22.727 20.250 M 39 24.378 C 39 24.585, 39.788 25.373, 40.750 26.128 C 42.336 27.371, 42.371 27.336, 41.128 25.750 C 39.821 24.084, 39 23.555, 39 24.378 M 50.126 25.348 C 49.267 26.383, 49.530 27.139, 51.254 28.598 C 53.498 30.498, 53.498 30.498, 51.748 28.419 C 50.784 27.274, 50.298 26.036, 50.667 25.667 C 51.036 25.298, 52.274 25.784, 53.419 26.748 C 55.498 28.499, 55.498 28.498, 53.595 26.250 C 51.349 23.597, 51.539 23.646, 50.126 25.348 M 44.269 25.693 C 45.242 25.947, 46.592 25.930, 47.269 25.656 C 47.946 25.382, 47.150 25.175, 45.500 25.195 C 43.850 25.215, 43.296 25.439, 44.269 25.693 M 35.585 27.969 C 35.441 28.261, 35.918 29.625, 36.646 31 C 37.849 33.271, 38.351 32.623, 37.915 29.362 C 37.868 29.011, 38.424 28.356, 39.152 27.906 C 40.048 27.352, 39.729 27.145, 38.161 27.263 C 36.889 27.359, 35.730 27.676, 35.585 27.969 M 34.232 34 C 34.232 35.925, 34.438 36.712, 34.689 35.750 C 34.941 34.788, 34.941 33.212, 34.689 32.250 C 34.438 31.288, 34.232 32.075, 34.232 34 M 56.232 34 C 56.232 35.925, 56.438 36.712, 56.689 35.750 C 56.941 34.788, 56.941 33.212, 56.689 32.250 C 56.438 31.288, 56.232 32.075, 56.232 34 M 36.366 36.786 C 35.457 38.241, 35.570 38.571, 36.976 38.571 C 38.139 38.571, 38.549 37.990, 38.234 36.786 C 37.977 35.804, 37.702 35, 37.624 35 C 37.545 35, 36.979 35.804, 36.366 36.786 M 52.500 38.001 C 52.150 39.102, 50.991 40.470, 49.923 41.041 C 47.785 42.185, 40 42.048, 40 40.867 C 40 40.458, 39.116 40.191, 38.035 40.272 C 36.213 40.410, 36.188 40.550, 37.687 42.207 C 39.006 43.664, 39.586 43.764, 40.839 42.746 C 42.129 41.699, 42.270 41.780, 41.719 43.250 C 40.993 45.187, 42.028 45.572, 43.637 43.963 C 44.353 43.247, 45.534 43.252, 47.451 43.981 C 49.864 44.899, 50.145 44.819, 49.591 43.377 C 49.049 41.964, 49.189 41.912, 50.534 43.028 C 51.844 44.115, 52.061 44.104, 51.806 42.965 C 51.638 42.209, 51.950 41.564, 52.500 41.530 C 54.210 41.426, 56.004 39.937, 55.921 38.691 C 55.865 37.839, 55.698 37.857, 55.336 38.756 C 55.057 39.447, 54.437 39.770, 53.958 39.474 C 53.479 39.178, 53.341 38.275, 53.651 37.468 C 53.960 36.661, 53.971 36, 53.674 36 C 53.378 36, 52.849 36.900, 52.500 38.001 M 44.813 45.683 C 45.534 45.972, 46.397 45.936, 46.729 45.604 C 47.061 45.272, 46.471 45.036, 45.417 45.079 C 44.252 45.127, 44.015 45.364, 44.813 45.683"/><path fill="#f8d0c0" d="M 33.394 14.829 C 33.739 15.387, 33.227 15.611, 32.212 15.345 C 31.181 15.076, 29.589 15.795, 28.461 17.040 C 26.750 18.928, 26.459 20.975, 26.174 33.103 L 25.849 47.003 28.847 50.001 L 31.846 53 45.867 53 C 59.247 53, 60.017 52.890, 62.694 50.587 L 65.500 48.173 65.500 33.614 C 65.500 14.032, 66.062 14.619, 46.868 14.173 C 37.803 13.962, 33.003 14.196, 33.394 14.829 M 28.511 19.745 C 28.696 20.710, 28.881 21.837, 28.923 22.250 C 28.966 22.663, 29.408 23, 29.906 23 C 30.946 23, 30.160 19.217, 28.967 18.480 C 28.532 18.211, 28.327 18.780, 28.511 19.745 M 35 20.214 C 35 20.646, 35.648 21, 36.441 21 C 37.234 21, 38.100 20.646, 38.368 20.214 C 38.635 19.782, 37.986 19.429, 36.927 19.429 C 35.867 19.429, 35 19.782, 35 20.214 M 56.362 20.500 C 55.464 22.839, 56.731 25, 59 25 C 61.544 25, 62.651 22.489, 60.989 20.487 C 59.402 18.574, 57.098 18.580, 56.362 20.500 M 40.048 22.949 C 39.249 23.455, 38.225 23.639, 37.773 23.360 C 37.321 23.080, 37.062 23.222, 37.198 23.676 C 37.334 24.129, 36.567 25.815, 35.494 27.423 C 30.198 35.358, 36.431 46, 46.374 46 C 53.252 46, 59.406 37.473, 57.166 31.047 C 56.383 28.800, 56.468 28.034, 57.547 27.620 C 59.207 26.983, 60.471 28.591, 59.016 29.490 C 57.331 30.532, 57.872 32, 59.941 32 C 61.009 32, 62.146 32.426, 62.468 32.948 C 62.790 33.469, 62.141 33.720, 61.027 33.505 C 58.744 33.066, 58.475 34.518, 60.285 37.500 C 61.771 39.947, 65.259 40.838, 64.379 38.546 C 64.055 37.702, 63.388 37.260, 62.895 37.565 C 62.403 37.869, 62 37.431, 62 36.590 C 62 35.750, 62.563 35.279, 63.250 35.542 C 64.094 35.866, 64.459 35.044, 64.375 33.011 C 64.143 27.422, 64.003 26.880, 62.956 27.527 C 62.382 27.882, 61.354 27.709, 60.672 27.143 C 59.990 26.577, 58.547 26.249, 57.466 26.415 C 56.385 26.580, 54.228 25.655, 52.673 24.358 C 49.702 21.879, 42.933 21.124, 40.048 22.949 M 54.020 24.524 C 54.716 25.362, 55.491 25.842, 55.743 25.591 C 56.436 24.897, 55.027 23, 53.819 23 C 53.155 23, 53.231 23.574, 54.020 24.524 M 44 27.059 C 44 27.641, 44.450 27.840, 45 27.500 C 45.550 27.160, 46 26.684, 46 26.441 C 46 26.198, 45.550 26, 45 26 C 44.450 26, 44 26.477, 44 27.059 M 39.557 29.223 C 37.714 31.854, 37.461 36.346, 39.188 35.771 C 39.841 35.553, 40.574 34.778, 40.817 34.048 C 41.061 33.317, 40.795 33.009, 40.223 33.362 C 38.570 34.384, 40.041 29.671, 41.819 28.250 C 42.679 27.563, 42.872 27, 42.248 27 C 41.624 27, 40.413 28, 39.557 29.223 M 48 27.979 C 48.825 28.500, 49.539 29.281, 49.586 29.714 C 49.634 30.146, 49.995 31.224, 50.389 32.109 C 51.435 34.457, 50.605 39.005, 48.940 40.059 C 48.148 40.559, 48.007 40.976, 48.628 40.985 C 50.124 41.005, 52.160 38.493, 51.325 37.658 C 50.963 37.296, 51.192 37, 51.833 37 C 53.537 37, 53.259 32.324, 51.385 29.465 C 50.497 28.109, 49.034 27.007, 48.135 27.015 C 46.716 27.029, 46.698 27.156, 48 27.979 M 29.500 34 C 29.160 34.550, 29.359 35, 29.941 35 C 30.523 35, 31 34.550, 31 34 C 31 33.450, 30.802 33, 30.559 33 C 30.316 33, 29.840 33.450, 29.500 34 M 28.459 37.067 C 28.096 37.653, 28.070 38.403, 28.400 38.733 C 28.730 39.063, 29 38.822, 29 38.198 C 29 37.550, 29.714 37.337, 30.664 37.701 C 31.783 38.131, 32.091 37.957, 31.605 37.170 C 30.703 35.711, 29.325 35.666, 28.459 37.067 M 39 37.878 C 39 38.886, 41.892 41.483, 42.357 40.893 C 42.528 40.677, 41.842 39.712, 40.833 38.750 C 39.825 37.788, 39 37.395, 39 37.878 M 58.433 37.666 C 58.753 38.307, 58.566 40.011, 58.018 41.452 C 57.239 43.503, 57.344 44.195, 58.505 44.640 C 59.321 44.953, 59.735 45.620, 59.425 46.121 C 59.115 46.622, 58.555 46.848, 58.181 46.621 C 57.806 46.395, 56.849 46.913, 56.054 47.773 C 54.771 49.159, 54.847 49.273, 56.729 48.781 C 58.198 48.397, 58.699 48.622, 58.357 49.512 C 58.086 50.219, 58.414 51.138, 59.086 51.553 C 59.868 52.037, 60.052 51.893, 59.595 51.155 C 59.183 50.486, 59.487 50, 60.319 50 C 61.109 50, 62.315 49.325, 63 48.500 C 64.351 46.873, 63.005 46.395, 61.450 47.950 C 60.850 48.550, 60.549 47.722, 60.633 45.700 C 60.707 43.917, 61.260 42.611, 61.883 42.750 C 62.497 42.887, 63 42.325, 63 41.500 C 63 40.675, 62.582 40.112, 62.071 40.250 C 61.559 40.388, 60.401 39.600, 59.496 38.500 C 58.592 37.400, 58.113 37.025, 58.433 37.666 M 31.442 39.681 C 31.767 40.330, 31.527 41.174, 30.910 41.556 C 30.112 42.049, 30.180 42.523, 31.143 43.191 C 32.072 43.834, 31.750 43.919, 30.125 43.458 C 28.509 43.001, 27.968 43.140, 28.434 43.893 C 28.810 44.502, 29.714 45, 30.442 45 C 31.171 45, 32.009 45.926, 32.305 47.057 C 32.650 48.377, 32.423 48.959, 31.671 48.682 C 31.027 48.444, 30.650 47.631, 30.833 46.875 C 31.017 46.119, 30.816 45.851, 30.388 46.279 C 29.326 47.341, 28.976 50.133, 29.983 49.511 C 30.427 49.236, 31.035 49.649, 31.334 50.428 C 31.665 51.290, 32.680 51.635, 33.928 51.309 C 35.055 51.014, 35.743 50.393, 35.456 49.929 C 35.169 49.464, 36.186 49.738, 37.717 50.536 C 40.794 52.141, 43.375 52.522, 41 51.021 C 40.175 50.500, 39.500 49.643, 39.500 49.117 C 39.500 48.591, 38.382 46.887, 37.015 45.330 C 35.649 43.774, 34.674 42.050, 34.849 41.500 C 35.024 40.950, 34.836 40.831, 34.432 41.234 C 34.028 41.638, 33.057 41.188, 32.275 40.234 C 31.492 39.281, 31.117 39.031, 31.442 39.681 M 51 48.059 C 51 48.641, 51.526 48.793, 52.170 48.395 C 52.986 47.890, 53.120 48.250, 52.611 49.586 C 52.054 51.046, 52.159 51.224, 53.054 50.337 C 53.698 49.698, 53.923 48.685, 53.554 48.087 C 52.693 46.695, 51 46.676, 51 48.059 M 47.638 49.500 C 47.322 50.325, 47.499 51, 48.031 51 C 48.564 51, 49 50.325, 49 49.500 C 49 48.675, 48.823 48, 48.607 48 C 48.391 48, 47.955 48.675, 47.638 49.500 M 43.702 50.667 C 43.984 51.400, 44.343 52, 44.500 52 C 44.657 52, 45.016 51.400, 45.298 50.667 C 45.579 49.933, 45.220 49.333, 44.500 49.333 C 43.780 49.333, 43.421 49.933, 43.702 50.667"/><path fill="#481010" d="M 65.088 16.195 C 65.961 16.913, 66.486 18.063, 66.254 18.750 C 65.657 20.524, 66.668 20.308, 67.356 18.515 C 67.706 17.602, 67.073 16.618, 65.713 15.960 C 63.830 15.049, 63.736 15.084, 65.088 16.195 M 57 21.441 C 57 23.490, 58.963 24.438, 60.337 23.054 C 61.224 22.159, 61.026 22.058, 59.500 22.628 C 57.723 23.291, 57.653 23.186, 58.872 21.687 C 60.055 20.234, 60.020 20, 58.622 20 C 57.730 20, 57 20.648, 57 21.441 M 67.427 21.329 C 67.147 22.060, 67.052 26.673, 67.217 31.579 L 67.517 40.500 68.008 30.248 C 68.496 20.079, 68.411 18.767, 67.427 21.329 M 24.079 23.583 C 24.127 24.748, 24.364 24.985, 24.683 24.188 C 24.972 23.466, 24.936 22.603, 24.604 22.271 C 24.272 21.939, 24.036 22.529, 24.079 23.583 M 43 24 C 43 24.550, 43.873 25, 44.941 25 C 46.009 25, 47.160 24.550, 47.500 24 C 47.851 23.433, 47.010 23, 45.559 23 C 44.152 23, 43 23.450, 43 24 M 37.964 26.036 C 36.843 27.157, 36.200 28.514, 36.533 29.053 C 37.463 30.558, 38.991 29.139, 38.321 27.393 C 37.903 26.304, 38.253 25.946, 39.510 26.175 C 40.491 26.354, 41.489 25.938, 41.730 25.250 C 42.405 23.317, 40.228 23.772, 37.964 26.036 M 48.788 24.545 C 48.489 24.845, 49.584 26.430, 51.222 28.069 C 53.893 30.739, 54.157 31.557, 53.772 35.977 C 53.536 38.688, 53.723 40.671, 54.188 40.384 C 54.653 40.097, 54.774 39.443, 54.457 38.931 C 54.141 38.419, 54.363 38, 54.951 38 C 56.968 38, 55.428 29.085, 52.957 26.454 C 50.613 23.959, 49.763 23.570, 48.788 24.545 M 24.079 27.583 C 24.127 28.748, 24.364 28.985, 24.683 28.188 C 24.972 27.466, 24.936 26.603, 24.604 26.271 C 24.272 25.939, 24.036 26.529, 24.079 27.583 M 35.409 33.447 C 35.456 35.298, 35.833 36.603, 36.247 36.347 C 37.270 35.715, 37.204 31.244, 36.162 30.600 C 35.701 30.315, 35.362 31.596, 35.409 33.447 M 22.252 38.500 C 22.263 40.700, 22.468 41.482, 22.707 40.238 C 22.946 38.994, 22.937 37.194, 22.687 36.238 C 22.437 35.282, 22.241 36.300, 22.252 38.500 M 39.543 41.931 C 39.226 42.443, 39.350 43.098, 39.817 43.387 C 40.284 43.676, 40.667 43.257, 40.667 42.456 C 40.667 40.770, 40.351 40.623, 39.543 41.931 M 44.269 44.693 C 45.242 44.947, 46.592 44.930, 47.269 44.656 C 47.946 44.382, 47.150 44.175, 45.500 44.195 C 43.850 44.215, 43.296 44.439, 44.269 44.693 M 64.405 53.250 L 62.500 55.500 64.750 53.595 C 65.987 52.547, 67 51.535, 67 51.345 C 67 50.545, 66.195 51.136, 64.405 53.250"/><path fill="#481810" d="M 57.872 22.664 C 56.628 24.172, 56.710 24.216, 58.750 23.129 C 61.077 21.889, 61.650 21, 60.122 21 C 59.640 21, 58.627 21.749, 57.872 22.664 M 42.079 24.583 C 42.127 25.748, 42.364 25.985, 42.683 25.188 C 42.972 24.466, 42.936 23.603, 42.604 23.271 C 42.272 22.939, 42.036 23.529, 42.079 24.583 M 47.500 24 C 47.160 24.550, 47.359 25, 47.941 25 C 48.523 25, 49 24.550, 49 24 C 49 23.450, 48.802 23, 48.559 23 C 48.316 23, 47.840 23.450, 47.500 24 M 22.195 31.500 C 22.215 33.150, 22.439 33.704, 22.693 32.731 C 22.947 31.758, 22.930 30.408, 22.656 29.731 C 22.382 29.054, 22.175 29.850, 22.195 31.500 M 35.377 36.361 C 35.487 37.115, 36.273 38.778, 37.122 40.058 C 38.283 41.806, 38.667 41.974, 38.667 40.735 C 38.667 39.828, 38.038 38.845, 37.270 38.550 C 36.502 38.255, 36.134 37.592, 36.453 37.076 C 36.772 36.560, 36.615 35.880, 36.104 35.564 C 35.593 35.249, 35.266 35.607, 35.377 36.361 M 51.500 42 C 51.160 42.550, 51.359 43, 51.941 43 C 52.523 43, 53 42.550, 53 42 C 53 41.450, 52.802 41, 52.559 41 C 52.316 41, 51.840 41.450, 51.500 42 M 36.750 56.723 C 38.538 56.945, 41.462 56.945, 43.250 56.723 C 45.038 56.502, 43.575 56.320, 40 56.320 C 36.425 56.320, 34.962 56.502, 36.750 56.723 M 52.269 56.693 C 53.242 56.947, 54.592 56.930, 55.269 56.656 C 55.946 56.382, 55.150 56.175, 53.500 56.195 C 51.850 56.215, 51.296 56.439, 52.269 56.693"/></svg>